<svg xmlns="http://www.w3.org/2000/svg" width="345" height="345" viewBox="0 0 345 345">
  <g id="Group_4" data-name="Group 4" transform="translate(0 -376)">
    <rect id="Rectangle_18" data-name="Rectangle 18" width="345" height="345" transform="translate(0 376)" fill="none" opacity="0.175"/>
    <path id="Path_17" data-name="Path 17" d="M6856.15,4226.6a32.728,32.728,0,0,0-2.605-2.614c-1.74-1.55-4.574-3.209-11.377-3.32-11.846-.2-18.459-1.64-25.713-6.288s-10.172-8.056-13.148-14.315-6.561-22.7,4.059-16.041,18.613,12.972,18.613,12.972a7.7,7.7,0,0,0,6.1,1.6c3.449-.7,12.242-6.176,13.828-7.437a28.3,28.3,0,0,0,3.523-3.479,13.256,13.256,0,0,0,2.455-4.788,11.285,11.285,0,0,0,.223-4.415c-.346-1.467-1.516-2.932-3.746-4.32-4.215-2.624-18.742-12.214-18.742-12.214s-1.17-.747-2.291-1.541-5.41-4.095,2.291-4.367,23.916-1.8,32.047,3.623,15.113,11.482,15.879,24.364-2.01,16.1,3.838,23.032,81.086,91.838,81.086,91.838,5.842,7.735,17.92,9.8a62.439,62.439,0,0,1,16.371,5.151,28.369,28.369,0,0,1,7.809,5.388c1.756,1.949,9.307,9.181,7.994,19.152s-4.467,16.774-5.207,17.849-3.883,9.2-7.561.5-8.836-19.7-8.836-19.7-1.424-4.786-7.6-4.962a31.046,31.046,0,0,0-12.527,2.356c-1.281.563-8.412,5.167-11.275,8.638s-.492,5.6,0,6.733,8.279,16.449,8.279,16.449,3.908,9.077-6.029,6.085a48.486,48.486,0,0,1-19.8-12.307c-2.158-2.394-7.916-10.189-7.666-16.527s.043-7.091.6-9.071,2.965-7.8,2.791-9.666.094-2.795-3.389-6.932S6856.15,4226.6,6856.15,4226.6Z" transform="translate(-6748.318 -3707.075)" fill="#fff"/>
    <path id="Path_18" data-name="Path 18" d="M6889.9,4427.441l24.859,29.45s-65.467,68.595-67.059,69.988a7.526,7.526,0,0,1-4.455,2.269c-1.971.3-5.4-.744-7.889-2.269a124.133,124.133,0,0,1-11.123-7.241,89.057,89.057,0,0,1-10.775-8.787c-1.564-1.7-3.234-3.6-3.127-6.831s.871-3.874,3.127-5.842S6889.9,4427.441,6889.9,4427.441Z" transform="translate(-6754.112 -3863.204)" fill="#d9d9d9"/>
    <path id="Path_19" data-name="Path 19" d="M7100.266,4240.853l-24.365-26.558s3.771-3.187,4.613-3.687,2.982-2.227,5.777-2.45,3.791.383,6.738-1.372,19.891-17.869,19.891-17.869a2.789,2.789,0,0,0,0-1.857c-.369-.887-.467-5.407-.617-7.875s.355-10.424.355-10.424a8.909,8.909,0,0,0-3.754-6.979c-3.807-2.579-6.111-2.925-6.111-2.925s-1.1-.811-3.529.578a8.59,8.59,0,0,1-5.016,1.006s-1.92.568-5.021-2.092-13.066-9.244-13.641-9.85a4.725,4.725,0,0,1-1.627-3.454c-.2-2.187.217-4.341,4.529-9.254s16.316-16.139,16.316-16.139,3.893-3.668,8.383-4.729,6.168-.273,7.2.245,14.773,10.787,14.773,10.787,1.848,1.435,1.869,2.76a16.432,16.432,0,0,1-.691,4.724c-.469,1.452-1.525,3.076,0,4.3s3.248,2.856,4.123,3.563,4.076,3.105,5.5,3.347,6.68.846,7.557,1.2,30.549,20.943,30.549,20.943a7.412,7.412,0,0,1,2.363,2.614,4.2,4.2,0,0,1,.7,2.366s6.043,6.068,6.928,7.01,7.637,8.615,10.2,14.3,5,10.221,5.389,18.188-1.652,16.5-3.715,20.877-3.1,7.166-4.826,9.581-2.9,4.235-4.344,5.008a8.434,8.434,0,0,1-3.336.8v-4.37s.031-12.622-3.711-20.236-7.582-14.054-12.789-17.738a40.519,40.519,0,0,0-8.5-4.929c-.795-.363-3.893-1.673-9.229,0s-8.979,3.235-14.666,3.216-5.42,0-5.42,0l-15.928,15.03a6.525,6.525,0,0,0-2.186,4.425c-.084,2.687-.057,6.668-2,8.629S7100.266,4240.853,7100.266,4240.853Z" transform="translate(-6905.519 -3683.396)" fill="#d9d9d9"/>
  </g>
</svg>
